<svg xmlns="http://www.w3.org/2000/svg" width="1280" height="720" viewBox="0 0 853 480">
  <rect width="853" height="480" fill="#17202d"/>
  <rect x="70" y="34" width="713" height="412" rx="9" fill="#263245"/>
  <text x="96" y="70" fill="#fff" font-family="sans-serif" font-size="20">Aether Settings</text>
  <rect x="522" y="48" width="235" height="32" rx="5" fill="#151d29"/>
  <text x="538" y="69" fill="#91a0b6" font-family="sans-serif" font-size="13">Search features and settings...</text>
  <line x1="96" y1="92" x2="757" y2="92" stroke="#637087"/>
  <text x="96" y="120" fill="#87b8ff" font-family="sans-serif" font-size="13">VISUALS</text>
  <rect x="96" y="132" width="661" height="36" rx="5" fill="#303d52"/>
  <rect x="108" y="143" width="14" height="14" rx="2" fill="none" stroke="#9eacc0" stroke-width="2"/>
  <text x="136" y="156" fill="#fff" font-family="sans-serif" font-size="15">Real hitbox</text>
  <text x="728" y="156" fill="#fff" font-family="sans-serif" font-size="15">›</text>
  <rect x="96" y="174" width="661" height="36" rx="5" fill="#303d52"/>
  <rect x="108" y="185" width="14" height="14" rx="2" fill="#5c9cff"/>
  <text x="136" y="198" fill="#fff" font-family="sans-serif" font-size="15">Input visualizer</text>
  <text x="728" y="198" fill="#fff" font-family="sans-serif" font-size="15">⌄</text>
  <rect x="112" y="216" width="629" height="64" rx="5" fill="#202a3a"/>
  <text x="130" y="242" fill="#d8e0ec" font-family="sans-serif" font-size="13">Show mouse buttons</text>
  <rect x="674" y="228" width="32" height="18" rx="9" fill="#5c9cff"/>
  <text x="130" y="267" fill="#d8e0ec" font-family="sans-serif" font-size="13">Overlay opacity</text>
  <line x1="575" y1="262" x2="706" y2="262" stroke="#7c8da5" stroke-width="5"/>
  <circle cx="664" cy="262" r="7" fill="#fff"/>
  <text x="96" y="315" fill="#87b8ff" font-family="sans-serif" font-size="13">GAMEPLAY</text>
  <rect x="96" y="327" width="661" height="36" rx="5" fill="#303d52"/>
  <text x="136" y="351" fill="#fff" font-family="sans-serif" font-size="15">Snap tap</text>
  <text x="728" y="351" fill="#fff" font-family="sans-serif" font-size="15">›</text>
  <text x="96" y="398" fill="#87b8ff" font-family="sans-serif" font-size="13">EDITORS</text>
  <rect x="96" y="410" width="661" height="28" rx="5" fill="#303d52"/>
  <text x="112" y="430" fill="#fff" font-family="sans-serif" font-size="14">HUD editor</text>
  <rect x="674" y="414" width="67" height="20" rx="4" fill="#4b76ad"/>
  <text x="693" y="429" fill="#fff" font-family="sans-serif" font-size="12">Open</text>
</svg>
