<svg xmlns="http://www.w3.org/2000/svg" width="1920" height="1080" viewBox="0 0 1920 1080">
  <rect width="1920" height="1080" fill="#17202d"/>
  <rect x="250" y="90" width="1420" height="900" rx="16" fill="#263245"/>
  <text x="300" y="150" fill="#fff" font-family="sans-serif" font-size="34">Aether Settings</text>
  <rect x="1210" y="112" width="400" height="52" rx="8" fill="#151d29"/>
  <text x="1240" y="146" fill="#91a0b6" font-family="sans-serif" font-size="22">Search features and settings...</text>
  <line x1="300" y1="190" x2="1610" y2="190" stroke="#637087"/>
  <text x="300" y="245" fill="#87b8ff" font-family="sans-serif" font-size="23">VISUALS</text>
  <g font-family="sans-serif" font-size="25" fill="#fff">
    <rect x="300" y="275" width="1310" height="62" rx="8" fill="#303d52"/>
    <rect x="322" y="294" width="24" height="24" rx="4" fill="none" stroke="#9eacc0" stroke-width="3"/>
    <text x="370" y="315">Real hitbox</text><text x="1560" y="315">›</text>
    <rect x="300" y="347" width="1310" height="62" rx="8" fill="#303d52"/>
    <rect x="322" y="366" width="24" height="24" rx="4" fill="#5c9cff"/>
    <text x="370" y="387">Input visualizer</text><text x="1560" y="387">⌄</text>
  </g>
  <rect x="330" y="419" width="1250" height="126" rx="8" fill="#202a3a"/>
  <text x="360" y="462" fill="#d8e0ec" font-family="sans-serif" font-size="22">Show mouse buttons</text>
  <rect x="1440" y="440" width="48" height="26" rx="13" fill="#5c9cff"/>
  <text x="360" y="510" fill="#d8e0ec" font-family="sans-serif" font-size="22">Overlay opacity</text>
  <line x1="1260" y1="503" x2="1490" y2="503" stroke="#7c8da5" stroke-width="8"/>
  <circle cx="1410" cy="503" r="12" fill="#fff"/>
  <text x="300" y="605" fill="#87b8ff" font-family="sans-serif" font-size="23">GAMEPLAY</text>
  <g font-family="sans-serif" font-size="25" fill="#fff">
    <rect x="300" y="635" width="1310" height="62" rx="8" fill="#303d52"/>
    <rect x="322" y="654" width="24" height="24" rx="4" fill="none" stroke="#9eacc0" stroke-width="3"/>
    <text x="370" y="675">Snap tap</text><text x="1560" y="675">›</text>
    <rect x="300" y="707" width="1310" height="62" rx="8" fill="#303d52"/>
    <rect x="322" y="726" width="24" height="24" rx="4" fill="none" stroke="#9eacc0" stroke-width="3"/>
    <text x="370" y="747">Auto team lock</text><text x="1560" y="747">›</text>
  </g>
  <text x="300" y="830" fill="#87b8ff" font-family="sans-serif" font-size="23">EDITORS</text>
  <rect x="300" y="860" width="1310" height="62" rx="8" fill="#303d52"/>
  <text x="330" y="900" fill="#fff" font-family="sans-serif" font-size="25">HUD editor</text>
  <rect x="1460" y="872" width="120" height="38" rx="7" fill="#4b76ad"/>
  <text x="1494" y="899" fill="#fff" font-family="sans-serif" font-size="21">Open</text>
</svg>
