<svg xmlns="http://www.w3.org/2000/svg" width="1920" height="1080" viewBox="0 0 1280 720">
  <rect width="1280" height="720" fill="#17202d"/>
  <rect x="130" y="54" width="1020" height="612" rx="12" fill="#263245"/>
  <text x="170" y="105" fill="#fff" font-family="sans-serif" font-size="28">Aether Settings</text>
  <rect x="790" y="72" width="320" height="44" rx="7" fill="#151d29"/>
  <text x="812" y="101" fill="#91a0b6" font-family="sans-serif" font-size="18">Search features and settings...</text>
  <line x1="170" y1="135" x2="1110" y2="135" stroke="#637087"/>
  <text x="170" y="174" fill="#87b8ff" font-family="sans-serif" font-size="18">VISUALS</text>
  <rect x="170" y="192" width="940" height="48" rx="7" fill="#303d52"/>
  <rect x="188" y="207" width="18" height="18" rx="3" fill="none" stroke="#9eacc0" stroke-width="2"/>
  <text x="226" y="224" fill="#fff" font-family="sans-serif" font-size="20">Real hitbox</text>
  <text x="1068" y="224" fill="#fff" font-family="sans-serif" font-size="20">›</text>
  <rect x="170" y="248" width="940" height="48" rx="7" fill="#303d52"/>
  <rect x="188" y="263" width="18" height="18" rx="3" fill="#5c9cff"/>
  <text x="226" y="280" fill="#fff" font-family="sans-serif" font-size="20">Input visualizer</text>
  <text x="1068" y="280" fill="#fff" font-family="sans-serif" font-size="20">⌄</text>
  <rect x="192" y="304" width="896" height="86" rx="7" fill="#202a3a"/>
  <text x="216" y="340" fill="#d8e0ec" font-family="sans-serif" font-size="18">Show mouse buttons</text>
  <rect x="988" y="322" width="40" height="22" rx="11" fill="#5c9cff"/>
  <text x="216" y="374" fill="#d8e0ec" font-family="sans-serif" font-size="18">Overlay opacity</text>
  <line x1="850" y1="368" x2="1028" y2="368" stroke="#7c8da5" stroke-width="6"/>
  <circle cx="970" cy="368" r="9" fill="#fff"/>
  <text x="170" y="437" fill="#87b8ff" font-family="sans-serif" font-size="18">GAMEPLAY</text>
  <rect x="170" y="455" width="940" height="48" rx="7" fill="#303d52"/>
  <text x="226" y="487" fill="#fff" font-family="sans-serif" font-size="20">Snap tap</text>
  <text x="1068" y="487" fill="#fff" font-family="sans-serif" font-size="20">›</text>
  <text x="170" y="550" fill="#87b8ff" font-family="sans-serif" font-size="18">EDITORS</text>
  <rect x="170" y="568" width="940" height="48" rx="7" fill="#303d52"/>
  <text x="194" y="600" fill="#fff" font-family="sans-serif" font-size="20">HUD editor</text>
  <rect x="980" y="577" width="108" height="30" rx="6" fill="#4b76ad"/>
  <text x="1011" y="599" fill="#fff" font-family="sans-serif" font-size="17">Open</text>
</svg>
